<svg version="1.1" viewBox="0 0 787 960" xmlns="http://www.w3.org/2000/svg">
<path d="m334 646c-40.39 13.46-161.4 157-211 190-0.037-106.5 0.604-213 1.245-319.6 0.92-152.9 1.839-305.8 0.755-458.4v-33c52.69 0 105.5 0.032 158.4 0.064 111.2 0.068 222.8 0.136 334.2-0.094 5.01-0.01 42.9 0.1 43.37 1.03 8.273 16.52 4.406 203.9 2.184 311.5-0.663 32.12-1.179 57.15-1.184 68.45 0 57.23 0.326 114.6 0.652 171.9 0.493 86.85 0.986 173.7 0.348 260.1-17.45 0-184.6-169.6-213-193h-1c-0.019-9.638-0.344-30.19-0.771-57.19-1.777-112.5-5.326-337.1 4.061-351.7 44.14-68.35 165.6-134.9 200.7-203.2-60.42 20.14-187.3 186.5-242.6 202.8-37.38 10.96-113.1-61.48-176.6-122.2-43.45-41.55-81.14-77.59-96.82-77.59l1 3c30.9 24.43 182.9 171.6 195.4 199.6 10.57 23.74 5.51 211.8 2.409 327-0.986 36.68-1.775 65.99-1.799 80.31z" fill="#24282E"/>
<path d="m663 838c-17.45 0-184.6-169.6-213-193 7.32 53.71 66.37 212.5 93 262 4.12-4.12 18.13-2.7 23.18-0.77 63.45 24.32 151.4 9.49 194.8 29.77l1-1c-31.93-32.87-66.33-64.33-99-97z" fill="#B2C6F9"/>
<path d="m123 836c-10.45 10.45-95 87.55-95 92 35.97 19.27 170.3-2.85 208-19 1 2 1 2 2 3 30.92-77.3 82.59-185.6 96-266-40.39 13.46-161.4 157-211 190z" fill="#A7BEF8"/>
</svg>
